<svg id="Layer_1" data-name="Layer 1" xmlns="http://www.w3.org/2000/svg" viewBox="0 0 165.15 62.87"><defs><style>.cls-1{fill:#e9af24;}</style></defs><title>bombachini_logo</title><path class="cls-1" d="M32.18,0c-.41.67-.79,1.29-1.17,1.9q-1.39,2.21-2.79,4.42c-.63,1-1.28,2-1.91,3L18.75,21.06c-.8,1.23-6,9.11-5.95,9.32s14.28,0,14.45,0,.63-.07.45.24L17.51,48.12l-4.28,7.33-2.51,4.33L9,62.69a.38.38,0,0,1-.21.18l.41-1.35c.94-3.06,4.52-14.69,5.37-17.45.77-2.5,2.41-8,2.44-8.1.06-.25-.44-.22-.44-.22-2.46,0-13.17,0-16.23,0-.31,0-.41,0-.28-.37C.86,33.21,4.54,23,5.6,20.06c.77-2.12,3.88-10.5,4.67-12.58.63-1.67,1.29-3.33,1.94-5,.3-.75.63-1.48.93-2.23A.36.36,0,0,1,13.52,0H32Z"/><path class="cls-1" d="M44.71,27.62V2.05h4a3,3,0,0,1,1.73.48,3.39,3.39,0,0,1,1.13,1.34A6.87,6.87,0,0,1,52.17,6a19.45,19.45,0,0,1,.17,2.69,14.25,14.25,0,0,1-.31,3,7.06,7.06,0,0,1-1,2.43A4.69,4.69,0,0,1,52.4,16.4a14,14,0,0,1,.43,3.67,17.22,17.22,0,0,1-.21,2.6,10.11,10.11,0,0,1-.67,2.43,5.18,5.18,0,0,1-1.23,1.8,2.69,2.69,0,0,1-1.9.71Zm5.79-19q0-1.09-.07-1.94a4.81,4.81,0,0,0-.31-1.43,2.24,2.24,0,0,0-.67-.92,2.39,2.39,0,0,0-1.18-.44H46.45v9.59h1.92a1.6,1.6,0,0,0,1.13-.31,3.13,3.13,0,0,0,.74-1.63A14.16,14.16,0,0,0,50.49,8.65Zm-4,6.87V25.75h2.23A3.43,3.43,0,0,0,50.39,24,8.35,8.35,0,0,0,51,20.45a14,14,0,0,0-.27-3,3,3,0,0,0-.86-1.72,1,1,0,0,0-.55-.2q-.34,0-.75,0Z"/><path class="cls-1" d="M64.6,7.29,61.73,27.62H59.84L63.61,2.05h2l3.9,25.57H67.62Z"/><path class="cls-1" d="M76.52,27.62V2.05h4.11a1.81,1.81,0,0,1,1.18.53A5.13,5.13,0,0,1,82.91,4a9.33,9.33,0,0,1,.8,2.26A12.89,12.89,0,0,1,84,9.23a13.12,13.12,0,0,1-.67,4.64,5.17,5.17,0,0,1-1.56,2.36,10.33,10.33,0,0,1,.82,2q.27.94.58,2.23v0l1.61,7.24h-2l-1.1-5.37q-.31-1.6-.6-2.6A15.54,15.54,0,0,0,80.61,18a3.66,3.66,0,0,0-.51-.92,4.38,4.38,0,0,0-.5-.51H78.27v11Zm1.75-23.7V14.74h1.88a1.31,1.31,0,0,0,1-.42,3,3,0,0,0,.62-1.1,8,8,0,0,0,.33-1.51q.1-.83.17-1.61a3,3,0,0,0,0-.41,2.21,2.21,0,0,1,0-.37q-.07-.92-.19-1.87a9.27,9.27,0,0,0-.38-1.73,3.38,3.38,0,0,0-.72-1.27,1.59,1.59,0,0,0-1.22-.49Z"/><path class="cls-1" d="M91.76,27.62V2.05h4a3,3,0,0,1,1.73.48,3.39,3.39,0,0,1,1.13,1.34A6.87,6.87,0,0,1,99.22,6a19.45,19.45,0,0,1,.17,2.69,14.25,14.25,0,0,1-.31,3,7.06,7.06,0,0,1-1,2.43,4.69,4.69,0,0,1,1.32,2.35,14,14,0,0,1,.43,3.67,17.22,17.22,0,0,1-.21,2.6A10.11,10.11,0,0,1,99,25.11a5.18,5.18,0,0,1-1.23,1.8,2.69,2.69,0,0,1-1.9.71Zm5.79-19q0-1.09-.07-1.94a4.81,4.81,0,0,0-.31-1.43,2.24,2.24,0,0,0-.67-.92,2.39,2.39,0,0,0-1.18-.44H93.5v9.59h1.92a1.6,1.6,0,0,0,1.13-.31,3.13,3.13,0,0,0,.74-1.63A14.16,14.16,0,0,0,97.54,8.65Zm-4,6.87V25.75h2.23A3.43,3.43,0,0,0,97.44,24a8.35,8.35,0,0,0,.62-3.54,14,14,0,0,0-.27-3,3,3,0,0,0-.86-1.72,1,1,0,0,0-.55-.2q-.34,0-.75,0Z"/><path class="cls-1" d="M111.65,7.29l-2.88,20.33h-1.88l3.77-25.57h2l3.9,25.57h-1.88Z"/><path class="cls-1" d="M123.57,27.62V2.05h4.11a1.81,1.81,0,0,1,1.18.53A5.13,5.13,0,0,1,130,4a9.33,9.33,0,0,1,.8,2.26,12.89,12.89,0,0,1,.31,2.92,13.12,13.12,0,0,1-.67,4.64,5.17,5.17,0,0,1-1.56,2.36,10.33,10.33,0,0,1,.82,2q.27.94.58,2.23v0l1.61,7.24h-2l-1.1-5.37q-.31-1.6-.6-2.6a15.54,15.54,0,0,0-.55-1.61,3.66,3.66,0,0,0-.51-.92,4.38,4.38,0,0,0-.5-.51h-1.34v11Zm1.75-23.7V14.74h1.88a1.31,1.31,0,0,0,1-.42,3,3,0,0,0,.62-1.1,8,8,0,0,0,.33-1.51q.1-.83.17-1.61a3,3,0,0,0,0-.41,2.21,2.21,0,0,1,0-.37q-.07-.92-.19-1.87a9.27,9.27,0,0,0-.38-1.73,3.38,3.38,0,0,0-.72-1.27,1.59,1.59,0,0,0-1.22-.49Z"/><path class="cls-1" d="M143.53,7.29l-2.88,20.33h-1.88l3.77-25.57h2l3.9,25.57h-1.88Z"/><path class="cls-1" d="M31.14,59.72V34.9H35a2.88,2.88,0,0,1,1.67.46,3.29,3.29,0,0,1,1.09,1.3,6.71,6.71,0,0,1,.58,2,19,19,0,0,1,.17,2.61,13.88,13.88,0,0,1-.3,2.89,6.85,6.85,0,0,1-.92,2.36,4.55,4.55,0,0,1,1.27,2.28A13.66,13.66,0,0,1,39,52.39a16.82,16.82,0,0,1-.2,2.52,9.85,9.85,0,0,1-.64,2.36A5,5,0,0,1,36.93,59a2.58,2.58,0,0,1-1.83.69ZM36.72,41.3q0-1.06-.07-1.88a4.65,4.65,0,0,0-.3-1.39,2.19,2.19,0,0,0-.64-.89,2.3,2.3,0,0,0-1.14-.43H32.83V46h1.85a1.54,1.54,0,0,0,1.09-.3,3,3,0,0,0,.71-1.58A13.79,13.79,0,0,0,36.72,41.3ZM32.83,48V57.9H35a3.31,3.31,0,0,0,1.65-1.72,8.14,8.14,0,0,0,.59-3.43A13.69,13.69,0,0,0,37,49.87a2.92,2.92,0,0,0-.83-1.67,1,1,0,0,0-.53-.2c-.22,0-.46,0-.73,0Z"/><path class="cls-1" d="M53,57a3.31,3.31,0,0,1-.54,1.83,1.94,1.94,0,0,1-1.6.91H47.94a2,2,0,0,1-1-.31,2.18,2.18,0,0,1-.68-.68,2.92,2.92,0,0,1-.36-.89,4.48,4.48,0,0,1-.12-1v-19a5.07,5.07,0,0,1,.12-1.09,2.5,2.5,0,0,1,.4-.92,2.2,2.2,0,0,1,.71-.64A2.08,2.08,0,0,1,48,34.9h2.67a2.31,2.31,0,0,1,1.68.91A2.82,2.82,0,0,1,53,37.57Zm-5.61-.86a3,3,0,0,0,.23,1.32q.23.46,1.09.46h1.62a.81.81,0,0,0,.83-.45,3.45,3.45,0,0,0,.2-1.34V38.5a3.45,3.45,0,0,0-.2-1.34.81.81,0,0,0-.83-.45h-2c-.24,0-.45.16-.63.48a2.62,2.62,0,0,0-.26,1.27Z"/><path class="cls-1" d="M73.71,59.72V40.94L68.43,59.72H67L61.67,40.91V59.72H59.89V34.9h1.75l6.11,20.89L73.68,34.9h1.75V59.72Z"/><path class="cls-1" d="M82.39,59.72V34.9h3.86a2.88,2.88,0,0,1,1.67.46A3.29,3.29,0,0,1,89,36.67a6.71,6.71,0,0,1,.58,2,19,19,0,0,1,.17,2.61,13.88,13.88,0,0,1-.3,2.89,6.85,6.85,0,0,1-.92,2.36,4.55,4.55,0,0,1,1.27,2.28,13.66,13.66,0,0,1,.41,3.56,16.82,16.82,0,0,1-.2,2.52,9.85,9.85,0,0,1-.64,2.36A5,5,0,0,1,88.18,59a2.58,2.58,0,0,1-1.83.69ZM88,41.3q0-1.06-.07-1.88a4.65,4.65,0,0,0-.3-1.39,2.19,2.19,0,0,0-.64-.89,2.3,2.3,0,0,0-1.14-.43H84.07V46h1.85a1.54,1.54,0,0,0,1.09-.3,3,3,0,0,0,.71-1.58A13.79,13.79,0,0,0,88,41.3ZM84.07,48V57.9h2.15a3.31,3.31,0,0,0,1.65-1.72,8.14,8.14,0,0,0,.59-3.43,13.69,13.69,0,0,0-.26-2.89,2.92,2.92,0,0,0-.83-1.67,1,1,0,0,0-.53-.2c-.22,0-.46,0-.73,0Z"/><path class="cls-1" d="M101.56,40,98.79,59.72H97l3.63-24.82h1.91l3.76,24.82h-1.81Z"/><path class="cls-1" d="M114.7,56.12a2.68,2.68,0,0,0,.26,1.32,1.18,1.18,0,0,0,1.12.46h1.55a.81.81,0,0,0,.83-.45,3.45,3.45,0,0,0,.2-1.34V51.37h1.65V57a3.31,3.31,0,0,1-.54,1.83,1.94,1.94,0,0,1-1.6.91h-2.94a2,2,0,0,1-1-.31,2.18,2.18,0,0,1-.68-.68,2.92,2.92,0,0,1-.36-.89,4.48,4.48,0,0,1-.12-1v-19a3.55,3.55,0,0,1,.59-2,1.91,1.91,0,0,1,1.68-.89H118a2.31,2.31,0,0,1,1.68.91,2.82,2.82,0,0,1,.63,1.77v5.68h-1.65V38.47a3.33,3.33,0,0,0-.2-1.32.81.81,0,0,0-.83-.43h-2c-.24,0-.45.16-.63.48a2.62,2.62,0,0,0-.26,1.27Z"/><path class="cls-1" d="M132.65,59.72V47.84h-3.93V59.72h-1.65V34.9h1.65V46h3.93V34.9h1.65V59.72Z"/><path class="cls-1" d="M141.07,59.72V34.9h1.65V59.72Z"/><path class="cls-1" d="M151.1,42.43V59.72h-1.65V34.9h1.72l3.89,17.39V34.9h1.65V59.72H155Z"/><path class="cls-1" d="M163.5,59.72V34.9h1.65V59.72Z"/></svg>