<?xml version="1.0" encoding="utf-8"?>
<!-- Generator: Adobe Illustrator 21.1.0, SVG Export Plug-In . SVG Version: 6.00 Build 0)  -->
<svg version="1.1" id="Layer_1" xmlns="http://www.w3.org/2000/svg" xmlns:xlink="http://www.w3.org/1999/xlink" x="0px" y="0px"
	 viewBox="0 0 744 741" style="enable-background:new 0 0 744 741;" xml:space="preserve">
<style type="text/css">
	.st0{fill:#FFFFFF;stroke:#000000;stroke-miterlimit:10;}
	.st1{fill:#E44F26;}
	.st2{fill:#F1662A;}
	.st3{fill:#EBEBEB;}
	.st4{fill:#010101;}
	.st5{fill:#FFFFFF;}
	.st6{fill:#131313;}
	.st7{fill:#1572B6;}
	.st8{fill:#33A9DC;}
</style>
<rect x="1" y="-1" class="st0" width="743" height="743"/>
<g>
	<polygon class="st1" points="50.4,546.7 23.3,243.1 320.8,243.1 293.7,546.7 171.9,580.4 	"/>
	<polygon class="st2" points="172,554.6 270.5,527.3 293.6,267.9 172,267.9 	"/>
	<polygon class="st3" points="172,380.5 122.8,380.5 119.4,342.4 172,342.4 172,305.1 171.9,305.1 78.7,305.1 79.6,315.1 
		88.7,417.8 172,417.8 	"/>
	<polygon class="st3" points="172,477.2 171.9,477.3 130.4,466.1 127.8,436.4 107.6,436.4 90.4,436.4 95.6,494.8 171.9,516 172,516 
			"/>
	<path class="st4" d="M51,160.6h18.9v18.7h17.3v-18.7h18.9v56.6H87.2v-19H69.9v19H51V160.6L51,160.6z"/>
	<path class="st4" d="M131,179.3h-16.7v-18.8h52.3v18.8H150v37.8H131L131,179.3L131,179.3z"/>
	<path class="st4" d="M174.9,160.6h19.7l12.1,19.9l12.1-19.9h19.7v56.6h-18.8v-28.1l-13,20.1h-0.3l-13-20.1v28.1h-18.5L174.9,160.6
		L174.9,160.6z"/>
	<path class="st4" d="M248.1,160.6H267v37.9h26.6v18.7h-45.5L248.1,160.6L248.1,160.6z"/>
	<polygon class="st5" points="171.9,380.5 171.9,417.8 217.8,417.8 213.4,466 171.9,477.3 171.9,516 248.2,494.8 248.8,488.6 
		257.6,390.5 258.5,380.5 248.4,380.5 	"/>
	<polygon class="st5" points="171.9,305.1 171.9,328.3 171.9,342.3 171.9,342.4 261.7,342.4 261.7,342.4 261.9,342.4 262.6,334 
		264.3,315.1 265.2,305.1 	"/>
</g>
<g>
	<path class="st6" d="M660.2,176.7h-24.7l25.7,27.9v13.3h-52.9v-15.5h25.7l-25.7-27.9v-13.3h51.9V176.7L660.2,176.7z M597.8,176.7
		h-24.7l25.7,27.9v13.3h-52.9v-15.5h25.7l-25.7-27.9v-13.3h51.9L597.8,176.7L597.8,176.7z M536,177.3h-26.6v24.3H536v16.2h-45.6
		v-56.7H536V177.3z"/>
</g>
<polygon class="st7" points="454.1,547.3 427.1,243.7 724.5,243.7 697.4,547.2 575.6,581 "/>
<polygon class="st8" points="575.8,525.2 674.2,497.9 697.4,238.5 575.8,238.5 "/>
<g>
	<polygon class="st5" points="575.8,348.5 625.1,348.5 628.5,310.4 575.8,310.4 575.8,273.1 575.9,273.1 669.2,273.1 668.3,283.1 
		659.1,385.7 575.8,385.7 	"/>
	<polygon class="st3" points="576,445.2 575.9,445.2 534.4,434.1 531.7,404.4 511.6,404.4 494.4,404.4 499.6,462.8 575.8,484 
		576,483.9 	"/>
	<polygon class="st5" points="621.9,384.2 617.4,434 575.9,445.2 575.9,484 652.2,462.8 652.8,456.5 659.3,384.2 	"/>
	<polygon class="st3" points="575.9,273.1 575.9,296.3 575.9,310.3 575.9,310.4 486.1,310.4 486.1,310.4 486,310.4 485.2,302 
		483.5,283.1 482.6,273.1 	"/>
	<polygon class="st3" points="575.8,348.5 575.8,371.6 575.8,385.6 575.8,385.7 535,385.7 535,385.7 534.8,385.7 534.1,377.4 
		532.4,358.5 531.5,348.5 	"/>
</g>
</svg>
