<svg version="1" xmlns="http://www.w3.org/2000/svg" width="196" height="196" viewBox="0 0 147 147"><path d="M14.3 1.8C12.6 3 12.5 7 12.2 65.7c-.2 55.1-.1 62.9 1.3 64.9 1.5 2.4 1.7 2.4 20 2.4 10.2 0 18.5.1 18.5.3 0 .1-.9 2.7-2 5.7s-2 6-2 6.7c0 1.1 8.7 1.3 43.3 1.1l43.2-.3.3-65c.2-61.8.2-65.1-1.6-66.5-1.4-1.1-4.2-1.5-12-1.4l-10.1.2 3.8-5.7c2.1-3.1 4-6 4.2-6.6.6-1.6-102.6-1.4-104.8.3zm99 4.2c-4.7 8-3.7 7.7-24.3 7.8-10.2 0-19 .1-19.7.1-.6.1-3.9 6.7-7.3 14.8-3.4 8.2-6.8 16.2-7.5 17.9-3 6.5-13.5 31.9-13.5 32.6 0 .3 6.1.7 13.6.7s13.8.2 14 .4c.3.2-3.2 11.7-7.8 25.4l-8.1 25.1H34.9c-9.7-.1-18.3-.4-19-.9-1.1-.7-1.4-12-1.5-62.1 0-33.7.3-62.1.8-63.1C16 3.1 19.4 3 65.6 3h49.5l-1.8 3zm19.5 12c1 2.6.9 124.2-.1 125.7-.6 1-10 1.3-41.3 1.3-22.2 0-40.4-.4-40.4-.8s.9-3.5 2-6.8c1.6-4.4 7.7-13.7 24.5-36.9C89.9 83.4 100 69.2 100 68.8c0-.4-6.1-.5-13.5-.3-7.7.2-13.5 0-13.5-.5s8.2-12.4 18.2-26.5L109.3 16h11.4c10.4 0 11.4.2 12.1 2z"/></svg>