<?xml version="1.0" standalone="no"?>
<!DOCTYPE svg PUBLIC "-//W3C//DTD SVG 20010904//EN"
 "http://www.w3.org/TR/2001/REC-SVG-20010904/DTD/svg10.dtd">
<svg version="1.0" xmlns="http://www.w3.org/2000/svg"
 width="147.000000pt" height="147.000000pt" viewBox="0 0 147.000000 147.000000"
 preserveAspectRatio="xMidYMid meet">
<metadata>
Created by potrace 1.11, written by Peter Selinger 2001-2013
</metadata>
<g transform="translate(0.000000,147.000000) scale(0.100000,-0.100000)"
fill="#000000" stroke="none">
<path d="M143 1452 c-17 -12 -18 -52 -21 -639 -2 -551 -1 -629 13 -649 15 -24
17 -24 200 -24 102 0 185 -1 185 -3 0 -1 -9 -27 -20 -57 -11 -30 -20 -60 -20
-67 0 -11 87 -13 433 -11 l432 3 3 650 c2 618 2 651 -16 665 -14 11 -42 15
-120 14 l-101 -2 38 57 c21 31 40 60 42 66 6 16 -1026 14 -1048 -3z m990 -42
c-47 -80 -37 -77 -243 -78 -102 0 -190 -1 -197 -1 -6 -1 -39 -67 -73 -148 -34
-82 -68 -162 -75 -179 -30 -65 -135 -319 -135 -326 0 -3 61 -7 136 -7 75 0
138 -2 140 -4 3 -2 -32 -117 -78 -254 l-81 -251 -178 0 c-97 1 -183 4 -190 9
-11 7 -14 120 -15 621 0 337 3 621 8 631 8 16 42 17 504 17 l495 0 -18 -30z
m195 -120 c10 -26 9 -1242 -1 -1257 -6 -10 -100 -13 -413 -13 -222 0 -404 4
-404 8 0 4 9 35 20 68 16 44 77 137 245 369 124 171 225 313 225 317 0 4 -61
5 -135 3 -77 -2 -135 0 -135 5 0 5 82 124 182 265 l181 255 114 0 c104 0 114
-2 121 -20z"/>
</g>
</svg>
