<svg id="Layer_1" data-name="Layer 1" xmlns="http://www.w3.org/2000/svg" viewBox="0 0 215.83 79"><defs><style>.cls-1{fill:#e9af24}</style></defs><path class="cls-1" d="M80.8 38.56V13h4a3 3 0 0 1 1.73.48 3.39 3.39 0 0 1 1.13 1.34 6.87 6.87 0 0 1 .6 2.09 19.45 19.45 0 0 1 .17 2.69 14.25 14.25 0 0 1-.31 3 7.06 7.06 0 0 1-1 2.43 4.69 4.69 0 0 1 1.32 2.35 14 14 0 0 1 .48 3.62 17.22 17.22 0 0 1-.21 2.6A10.11 10.11 0 0 1 88 36a5.18 5.18 0 0 1-1.23 1.8 2.69 2.69 0 0 1-1.9.71zm5.79-19q0-1.09-.07-1.94a4.81 4.81 0 0 0-.31-1.43 2.24 2.24 0 0 0-.67-.92 2.39 2.39 0 0 0-1.18-.44h-1.81v9.59h1.92a1.6 1.6 0 0 0 1.13-.31 3.13 3.13 0 0 0 .74-1.63 14.16 14.16 0 0 0 .25-2.89zm-4 6.87v10.26h2.23a3.43 3.43 0 0 0 1.71-1.77 8.35 8.35 0 0 0 .62-3.54 14 14 0 0 0-.27-3 3 3 0 0 0-.88-1.69 1 1 0 0 0-.55-.2h-.75zm18.11-8.2l-2.88 20.33h-1.88L99.71 13h2l3.9 25.57h-1.88zm11.92 20.33V13h4.11a1.81 1.81 0 0 1 1.18.53A5.13 5.13 0 0 1 119 15a9.33 9.33 0 0 1 .8 2.26 12.89 12.89 0 0 1 .31 2.92 13.12 13.12 0 0 1-.67 4.64 5.17 5.17 0 0 1-1.56 2.36 10.33 10.33 0 0 1 .82 2q.27.94.58 2.23l1.61 7.24h-2l-1.1-5.37q-.31-1.6-.6-2.6a15.54 15.54 0 0 0-.55-1.61 3.66 3.66 0 0 0-.51-.92 4.38 4.38 0 0 0-.5-.51h-1.34v11zm1.75-23.7v10.81h1.88a1.31 1.31 0 0 0 1-.42 3 3 0 0 0 .62-1.1 8 8 0 0 0 .33-1.51q.1-.83.17-1.61a3 3 0 0 0 0-.41 2.21 2.21 0 0 1 0-.37q-.07-.92-.19-1.87a9.27 9.27 0 0 0-.38-1.73 3.38 3.38 0 0 0-.72-1.27 1.59 1.59 0 0 0-1.22-.49zm13.48 23.7V13h4a3 3 0 0 1 1.73.48 3.39 3.39 0 0 1 1.13 1.34 6.87 6.87 0 0 1 .6 2.09 19.45 19.45 0 0 1 .17 2.69 14.25 14.25 0 0 1-.31 3 7.06 7.06 0 0 1-1 2.43 4.69 4.69 0 0 1 1.32 2.35A14 14 0 0 1 136 31a17.22 17.22 0 0 1-.21 2.6 10.11 10.11 0 0 1-.69 2.4 5.18 5.18 0 0 1-1.23 1.8 2.69 2.69 0 0 1-1.9.71zm5.79-19q0-1.09-.07-1.94a4.81 4.81 0 0 0-.31-1.43 2.24 2.24 0 0 0-.67-.92 2.39 2.39 0 0 0-1.18-.44h-1.81v9.59h1.92a1.6 1.6 0 0 0 1.13-.31 3.13 3.13 0 0 0 .74-1.63 14.16 14.16 0 0 0 .25-2.89zm-4 6.87v10.26h2.23a3.43 3.43 0 0 0 1.71-1.77 8.35 8.35 0 0 0 .62-3.54 14 14 0 0 0-.27-3 3 3 0 0 0-.86-1.72 1 1 0 0 0-.55-.2h-.75zm18.11-8.2l-2.88 20.33H143L146.76 13h2l3.9 25.57h-1.88zm11.92 20.33V13h4.11a1.81 1.81 0 0 1 1.18.53 5.13 5.13 0 0 1 1.1 1.46 9.33 9.33 0 0 1 .8 2.26 12.89 12.89 0 0 1 .31 2.92 13.12 13.12 0 0 1-.67 4.64 5.17 5.17 0 0 1-1.56 2.36 10.33 10.33 0 0 1 .82 2q.27.94.58 2.23l1.66 7.16h-2l-1.1-5.37q-.31-1.6-.6-2.6a15.54 15.54 0 0 0-.55-1.61 3.66 3.66 0 0 0-.51-.92 4.38 4.38 0 0 0-.5-.51h-1.34v11zm1.75-23.7v10.81h1.88a1.31 1.31 0 0 0 1-.42 3 3 0 0 0 .62-1.1 8 8 0 0 0 .33-1.51q.1-.83.17-1.61a3 3 0 0 0 0-.41 2.21 2.21 0 0 1 0-.37q-.07-.92-.19-1.87a9.27 9.27 0 0 0-.38-1.73 3.38 3.38 0 0 0-.72-1.27 1.59 1.59 0 0 0-1.22-.49zm18.21 3.37l-2.88 20.33h-1.88L178.64 13h2l3.9 25.57h-1.88zM81.24 70.66V45.84h3.86a2.88 2.88 0 0 1 1.67.46 3.29 3.29 0 0 1 1.09 1.3 6.71 6.71 0 0 1 .58 2 19 19 0 0 1 .17 2.61 13.88 13.88 0 0 1-.3 2.89 6.85 6.85 0 0 1-.92 2.36 4.55 4.55 0 0 1 1.27 2.28 13.66 13.66 0 0 1 .41 3.56 16.82 16.82 0 0 1-.2 2.52 9.85 9.85 0 0 1-.64 2.36A5 5 0 0 1 87 70a2.58 2.58 0 0 1-1.83.69zm5.58-18.41q0-1.06-.07-1.88a4.65 4.65 0 0 0-.3-1.39 2.19 2.19 0 0 0-.64-.89 2.3 2.3 0 0 0-1.14-.43h-1.75V57h1.85a1.54 1.54 0 0 0 1.09-.3 3 3 0 0 0 .71-1.58 13.79 13.79 0 0 0 .25-2.88zm-3.89 6.67v9.93h2.15a3.31 3.31 0 0 0 1.65-1.72 8.14 8.14 0 0 0 .59-3.43 13.69 13.69 0 0 0-.32-2.9 2.92 2.92 0 0 0-.83-1.67 1 1 0 0 0-.53-.2h-.73zm20.19 9a3.31 3.31 0 0 1-.54 1.83 1.94 1.94 0 0 1-1.6.91H98a2 2 0 0 1-1-.31 2.18 2.18 0 0 1-.68-.68 2.92 2.92 0 0 1-.36-.89 4.48 4.48 0 0 1-.12-1v-19a5.07 5.07 0 0 1 .16-1.13 2.5 2.5 0 0 1 .4-.92 2.2 2.2 0 0 1 .71-.64 2.08 2.08 0 0 1 1.06-.25h2.67a2.31 2.31 0 0 1 1.68.91 2.82 2.82 0 0 1 .63 1.77zm-5.61-.86a3 3 0 0 0 .23 1.32q.23.46 1.09.46h1.62a.81.81 0 0 0 .83-.45 3.45 3.45 0 0 0 .2-1.34V49.44a3.45 3.45 0 0 0-.2-1.34.81.81 0 0 0-.83-.45h-2c-.24 0-.45.16-.63.48a2.62 2.62 0 0 0-.26 1.27zm26.3 3.6V51.88l-5.28 18.78h-1.45l-5.31-18.81v18.81H110V45.84h1.75l6.11 20.89 5.94-20.89h1.75v24.82zm8.68 0V45.84h3.86a2.88 2.88 0 0 1 1.67.46 3.29 3.29 0 0 1 1.09 1.3 6.71 6.71 0 0 1 .58 2 19 19 0 0 1 .17 2.61 13.88 13.88 0 0 1-.3 2.89 6.85 6.85 0 0 1-.92 2.36 4.55 4.55 0 0 1 1.27 2.28 13.66 13.66 0 0 1 .41 3.56 16.82 16.82 0 0 1-.2 2.52 9.85 9.85 0 0 1-.64 2.36 5 5 0 0 1-1.2 1.82 2.58 2.58 0 0 1-1.83.69zm5.58-18.41q0-1.06-.07-1.88a4.65 4.65 0 0 0-.3-1.39 2.19 2.19 0 0 0-.64-.89 2.3 2.3 0 0 0-1.14-.43h-1.75V57H136a1.54 1.54 0 0 0 1.09-.3 3 3 0 0 0 .71-1.58 13.79 13.79 0 0 0 .27-2.88zm-3.89 6.67v9.93h2.15a3.31 3.31 0 0 0 1.67-1.73 8.14 8.14 0 0 0 .59-3.43 13.69 13.69 0 0 0-.26-2.89 2.92 2.92 0 0 0-.83-1.67 1 1 0 0 0-.53-.2h-.73zm17.48-8l-2.77 19.73h-1.82l3.63-24.82h1.91l3.76 24.82h-1.81zm13.14 16.14a2.68 2.68 0 0 0 .26 1.32 1.18 1.18 0 0 0 1.12.46h1.55a.81.81 0 0 0 .83-.45 3.45 3.45 0 0 0 .2-1.34v-4.74h1.65v5.61a3.31 3.31 0 0 1-.54 1.83 1.94 1.94 0 0 1-1.6.91h-2.94a2 2 0 0 1-1-.31 2.18 2.18 0 0 1-.68-.68 2.92 2.92 0 0 1-.36-.89 4.48 4.48 0 0 1-.12-1v-19a3.55 3.55 0 0 1 .59-2 1.91 1.91 0 0 1 1.68-.89h2.67a2.31 2.31 0 0 1 1.68.91 2.82 2.82 0 0 1 .63 1.77v5.68h-1.65V49.4a3.33 3.33 0 0 0-.2-1.32.81.81 0 0 0-.83-.43h-2c-.24 0-.45.16-.63.48a2.62 2.62 0 0 0-.26 1.27zm17.95 3.6V58.78h-3.93v11.88h-1.65V45.84h1.65v11.09h3.93V45.84h1.65v24.82zm8.41 0V45.84h1.65v24.82zm10.03-17.3v17.3h-1.65V45.84h1.72l3.89 17.39V45.84h1.65v24.82h-1.68zm12.41 17.3V45.84h1.65v24.82zM55.07 2L30.74 36.13 29 38.54h3l12.54-.18-22.71 31.38H3.43A1.48 1.48 0 0 1 2 68.5V3.22A1.24 1.24 0 0 1 3.2 2h51.87M58 .48H3.2A2.75 2.75 0 0 0 .46 3.22V68.5a3 3 0 0 0 3 2.74H22.6l24.88-34.47L32 37 58 .48z"/><path class="cls-1" d="M63.58 9.05a1.26 1.26 0 0 1 1.26 1.25v65.95a1.25 1.25 0 0 1-1.25 1.25l-42.21-.22c1.92-5.89 7.82-23.89 11.16-34.11l.64-2H17.93c4.58-10.85 11.83-28.05 13.56-32.12h32.09m0-1.5H30.5L15.67 42.71h15.45S19.3 78.77 19.32 78.77l44.26.23a2.76 2.76 0 0 0 2.76-2.75V10.3a2.76 2.76 0 0 0-2.76-2.75z"/><path class="cls-1" d="M30.64 37l21-29.45H30.18L15.34 42.71H30.8s-5.73 17.48-9.2 28.1l24.57-34z"/></svg>