<svg data-name="Layer 1" xmlns="http://www.w3.org/2000/svg" viewBox="0 0 165.15 62.87"><path d="M32.18 0c-.41.67-.79 1.29-1.17 1.9q-1.39 2.21-2.79 4.42c-.63 1-1.28 2-1.91 3l-7.56 11.74c-.8 1.23-6 9.11-5.95 9.32s14.28 0 14.45 0 .63-.07.45.24l-10.19 17.5-4.28 7.33-2.51 4.33L9 62.69a.38.38 0 0 1-.21.18l.41-1.35c.94-3.06 4.52-14.69 5.37-17.45.77-2.5 2.41-8 2.44-8.1.06-.25-.44-.22-.44-.22H.34c-.31 0-.41 0-.28-.37C.86 33.21 4.54 23 5.6 20.06c.77-2.12 3.88-10.5 4.67-12.58.63-1.67 1.29-3.33 1.94-5 .3-.75.63-1.48.93-2.23a.36.36 0 0 1 .38-.25H32zm12.53 27.62V2.05h4a3 3 0 0 1 1.73.48 3.39 3.39 0 0 1 1.13 1.34 6.87 6.87 0 0 1 .6 2.13 19.45 19.45 0 0 1 .17 2.69 14.25 14.25 0 0 1-.31 3 7.06 7.06 0 0 1-1 2.43 4.69 4.69 0 0 1 1.37 2.28 14 14 0 0 1 .43 3.67 17.22 17.22 0 0 1-.21 2.6 10.11 10.11 0 0 1-.67 2.43 5.18 5.18 0 0 1-1.23 1.8 2.69 2.69 0 0 1-1.9.71zm5.79-19q0-1.09-.07-1.94a4.81 4.81 0 0 0-.31-1.43 2.24 2.24 0 0 0-.67-.92 2.39 2.39 0 0 0-1.18-.44h-1.82v9.59h1.92a1.6 1.6 0 0 0 1.13-.31 3.13 3.13 0 0 0 .74-1.63 14.16 14.16 0 0 0 .25-2.89zm-4 6.87v10.26h2.23A3.43 3.43 0 0 0 50.39 24a8.35 8.35 0 0 0 .61-3.55 14 14 0 0 0-.27-3 3 3 0 0 0-.86-1.72 1 1 0 0 0-.55-.2h-.75zm18.1-8.2l-2.87 20.33h-1.89l3.77-25.57h2l3.9 25.57h-1.89zm11.92 20.33V2.05h4.11a1.81 1.81 0 0 1 1.18.53A5.13 5.13 0 0 1 82.91 4a9.33 9.33 0 0 1 .8 2.26A12.89 12.89 0 0 1 84 9.23a13.12 13.12 0 0 1-.67 4.64 5.17 5.17 0 0 1-1.56 2.36 10.33 10.33 0 0 1 .82 2q.27.94.58 2.23l1.61 7.24h-2l-1.1-5.37q-.31-1.6-.6-2.6a15.54 15.54 0 0 0-.47-1.73 3.66 3.66 0 0 0-.51-.92 4.38 4.38 0 0 0-.5-.51h-1.33v11zm1.75-23.7v10.82h1.88a1.31 1.31 0 0 0 1-.42 3 3 0 0 0 .62-1.1 8 8 0 0 0 .33-1.51q.1-.83.17-1.61a3 3 0 0 0 0-.41 2.21 2.21 0 0 1 0-.37q-.07-.92-.19-1.87a9.27 9.27 0 0 0-.38-1.73 3.38 3.38 0 0 0-.72-1.27 1.59 1.59 0 0 0-1.22-.49zm13.49 23.7V2.05h4a3 3 0 0 1 1.73.48 3.39 3.39 0 0 1 1.13 1.34 6.87 6.87 0 0 1 .6 2.13 19.45 19.45 0 0 1 .17 2.69 14.25 14.25 0 0 1-.31 3 7.06 7.06 0 0 1-1 2.43 4.69 4.69 0 0 1 1.32 2.35 14 14 0 0 1 .43 3.67 17.22 17.22 0 0 1-.21 2.6 10.11 10.11 0 0 1-.62 2.37 5.18 5.18 0 0 1-1.23 1.8 2.69 2.69 0 0 1-1.9.71zm5.79-19q0-1.09-.07-1.94a4.81 4.81 0 0 0-.31-1.43 2.24 2.24 0 0 0-.67-.92 2.39 2.39 0 0 0-1.18-.44H93.5v9.59h1.92a1.6 1.6 0 0 0 1.13-.31 3.13 3.13 0 0 0 .74-1.63 14.16 14.16 0 0 0 .25-2.89zm-4 6.87v10.26h2.23A3.43 3.43 0 0 0 97.44 24a8.35 8.35 0 0 0 .62-3.54 14 14 0 0 0-.27-3 3 3 0 0 0-.86-1.72 1 1 0 0 0-.55-.2h-.75zm18.1-8.2l-2.88 20.33h-1.88l3.77-25.57h2l3.9 25.57h-1.88zm11.92 20.33V2.05h4.11a1.81 1.81 0 0 1 1.18.53A5.13 5.13 0 0 1 130 4a9.33 9.33 0 0 1 .8 2.26 12.89 12.89 0 0 1 .31 2.92 13.12 13.12 0 0 1-.67 4.64 5.17 5.17 0 0 1-1.56 2.36 10.33 10.33 0 0 1 .82 2q.27.94.58 2.23l1.61 7.24h-2l-1.1-5.37q-.31-1.6-.6-2.6a15.54 15.54 0 0 0-.55-1.61 3.66 3.66 0 0 0-.51-.92 4.38 4.38 0 0 0-.5-.51h-1.34v11zm1.75-23.7v10.82h1.88a1.31 1.31 0 0 0 1-.42 3 3 0 0 0 .62-1.1 8 8 0 0 0 .33-1.51q.1-.83.17-1.61a3 3 0 0 0 0-.41 2.21 2.21 0 0 1 0-.37q-.07-.92-.19-1.87a9.27 9.27 0 0 0-.38-1.73 3.38 3.38 0 0 0-.72-1.27 1.59 1.59 0 0 0-1.22-.49zm18.21 3.37l-2.88 20.33h-1.88l3.77-25.57h2l3.9 25.57h-1.88zM31.14 59.72V34.9H35a2.88 2.88 0 0 1 1.67.46 3.29 3.29 0 0 1 1.09 1.3 6.71 6.71 0 0 1 .58 2 19 19 0 0 1 .17 2.61 13.88 13.88 0 0 1-.3 2.89 6.85 6.85 0 0 1-.92 2.36 4.55 4.55 0 0 1 1.27 2.28 13.66 13.66 0 0 1 .44 3.59 16.82 16.82 0 0 1-.2 2.52 9.85 9.85 0 0 1-.64 2.36A5 5 0 0 1 36.93 59a2.58 2.58 0 0 1-1.83.69zm5.58-18.42q0-1.06-.07-1.88a4.65 4.65 0 0 0-.3-1.39 2.19 2.19 0 0 0-.64-.89 2.3 2.3 0 0 0-1.14-.43h-1.74V46h1.85a1.54 1.54 0 0 0 1.09-.3 3 3 0 0 0 .71-1.58 13.79 13.79 0 0 0 .24-2.82zM32.83 48v9.9H35a3.31 3.31 0 0 0 1.65-1.72 8.14 8.14 0 0 0 .59-3.43 13.69 13.69 0 0 0-.24-2.88 2.92 2.92 0 0 0-.83-1.67 1 1 0 0 0-.53-.2h-.73zM53 57a3.31 3.31 0 0 1-.54 1.83 1.94 1.94 0 0 1-1.6.91h-2.92a2 2 0 0 1-1-.31 2.18 2.18 0 0 1-.68-.68 2.92 2.92 0 0 1-.36-.89 4.48 4.48 0 0 1-.12-1v-19a5.07 5.07 0 0 1 .12-1.09 2.5 2.5 0 0 1 .4-.92 2.2 2.2 0 0 1 .71-.64 2.08 2.08 0 0 1 .99-.31h2.67a2.31 2.31 0 0 1 1.68.91 2.82 2.82 0 0 1 .65 1.76zm-5.61-.86a3 3 0 0 0 .23 1.32q.23.46 1.09.46h1.62a.81.81 0 0 0 .83-.45 3.45 3.45 0 0 0 .2-1.34V38.5a3.45 3.45 0 0 0-.2-1.34.81.81 0 0 0-.83-.45h-2c-.24 0-.45.16-.63.48a2.62 2.62 0 0 0-.26 1.27zm26.32 3.58V40.94l-5.28 18.78H67l-5.33-18.81v18.81h-1.78V34.9h1.75l6.11 20.89 5.93-20.89h1.75v24.82zm8.68 0V34.9h3.86a2.88 2.88 0 0 1 1.67.46A3.29 3.29 0 0 1 89 36.67a6.71 6.71 0 0 1 .58 2 19 19 0 0 1 .17 2.61 13.88 13.88 0 0 1-.3 2.89 6.85 6.85 0 0 1-.92 2.36 4.55 4.55 0 0 1 1.27 2.28 13.66 13.66 0 0 1 .41 3.56 16.82 16.82 0 0 1-.2 2.52 9.85 9.85 0 0 1-.64 2.36A5 5 0 0 1 88.18 59a2.58 2.58 0 0 1-1.83.69zM88 41.3q0-1.06-.07-1.88a4.65 4.65 0 0 0-.3-1.39 2.19 2.19 0 0 0-.64-.89 2.3 2.3 0 0 0-1.14-.43h-1.78V46h1.85a1.54 1.54 0 0 0 1.09-.3 3 3 0 0 0 .71-1.58A13.79 13.79 0 0 0 88 41.3zM84.07 48v9.9h2.15a3.31 3.31 0 0 0 1.65-1.72 8.14 8.14 0 0 0 .59-3.43 13.69 13.69 0 0 0-.26-2.89 2.92 2.92 0 0 0-.83-1.67 1 1 0 0 0-.53-.2h-.73zm17.49-8l-2.77 19.72H97l3.63-24.82h1.91l3.76 24.82h-1.81zm13.14 16.12a2.68 2.68 0 0 0 .26 1.32 1.18 1.18 0 0 0 1.12.46h1.55a.81.81 0 0 0 .83-.45 3.45 3.45 0 0 0 .2-1.34v-4.74h1.65V57a3.31 3.31 0 0 1-.54 1.83 1.94 1.94 0 0 1-1.6.91h-2.94a2 2 0 0 1-1-.31 2.18 2.18 0 0 1-.68-.68 2.92 2.92 0 0 1-.36-.89 4.48 4.48 0 0 1-.12-1v-19a3.55 3.55 0 0 1 .59-2 1.91 1.91 0 0 1 1.68-.89H118a2.31 2.31 0 0 1 1.68.91 2.82 2.82 0 0 1 .63 1.77v5.68h-1.65v-4.86a3.33 3.33 0 0 0-.2-1.32.81.81 0 0 0-.83-.43h-2c-.24 0-.45.16-.63.48a2.62 2.62 0 0 0-.26 1.27zm17.95 3.6V47.84h-3.93v11.88h-1.65V34.9h1.65V46h3.93V34.9h1.65v24.82zm8.42 0V34.9h1.65v24.82zm10.03-17.29v17.29h-1.65V34.9h1.72l3.89 17.39V34.9h1.65v24.82H155zm12.4 17.29V34.9h1.65v24.82z" fill="#e9af24"/></svg>