<svg id="Layer_1" data-name="Layer 1" xmlns="http://www.w3.org/2000/svg" viewBox="0 0 184.02 62.87"><defs><style>.cls-1{fill:#e9af24;}</style></defs><title>bombachini_logo_alt</title><path class="cls-1" d="M32.18,0c-.41.67-.79,1.29-1.17,1.9q-1.39,2.21-2.79,4.42c-.63,1-1.28,2-1.91,3L18.75,21.06c-.8,1.23-6,9.11-5.95,9.32s14.28,0,14.45,0,.63-.07.45.24L17.51,48.12l-4.28,7.33-2.51,4.33L9,62.69a.38.38,0,0,1-.21.18l.41-1.35c.94-3.06,4.52-14.69,5.37-17.45.77-2.5,2.41-8,2.44-8.1.06-.25-.44-.22-.44-.22-2.46,0-13.17,0-16.23,0-.31,0-.41,0-.28-.37C.86,33.21,4.54,23,5.6,20.06c.77-2.12,3.88-10.5,4.67-12.58.63-1.67,1.29-3.33,1.94-5,.3-.75.63-1.48.93-2.23A.36.36,0,0,1,13.52,0H32Z"/><path class="cls-1" d="M39.71,27.62V9.06h2.91a2.18,2.18,0,0,1,1.26.35,2.46,2.46,0,0,1,.82,1,5,5,0,0,1,.44,1.52,14.12,14.12,0,0,1,.12,1.95A10.34,10.34,0,0,1,45,16a5.12,5.12,0,0,1-.7,1.76,3.4,3.4,0,0,1,1,1.7,10.17,10.17,0,0,1,.31,2.67A12.5,12.5,0,0,1,45.45,24,7.34,7.34,0,0,1,45,25.8a3.76,3.76,0,0,1-.89,1.31,2,2,0,0,1-1.38.52Zm4.2-13.77q0-.79,0-1.41a3.49,3.49,0,0,0-.22-1,1.63,1.63,0,0,0-.48-.67,1.74,1.74,0,0,0-.86-.32H41v7h1.39a1.16,1.16,0,0,0,.82-.22A2.27,2.27,0,0,0,43.72,16,10.28,10.28,0,0,0,43.91,13.85Zm-2.93,5v7.43h1.62A2.49,2.49,0,0,0,43.83,25a6.06,6.06,0,0,0,.45-2.57,10.16,10.16,0,0,0-.2-2.16A2.18,2.18,0,0,0,43.46,19a.72.72,0,0,0-.4-.15l-.55,0Z"/><path class="cls-1" d="M54.15,12.86,52.06,27.62H50.69L53.43,9.06h1.44L57.7,27.62H56.34Z"/><path class="cls-1" d="M62.8,27.62V9.06h3a1.31,1.31,0,0,1,.86.38,3.72,3.72,0,0,1,.8,1.06A6.77,6.77,0,0,1,68,12.15a9.36,9.36,0,0,1,.22,2.12,9.52,9.52,0,0,1-.48,3.37,3.75,3.75,0,0,1-1.13,1.71,7.5,7.5,0,0,1,.6,1.42q.2.68.42,1.62v0l1.17,5.26H67.4l-.8-3.9q-.22-1.16-.44-1.89a11.28,11.28,0,0,0-.4-1.17A2.66,2.66,0,0,0,65.4,20a3.18,3.18,0,0,0-.36-.37h-1v8Zm1.27-17.2v7.85h1.37a1,1,0,0,0,.73-.31,2.14,2.14,0,0,0,.45-.8,5.81,5.81,0,0,0,.24-1.1q.07-.6.12-1.17a2.17,2.17,0,0,0,0-.3,1.6,1.6,0,0,1,0-.27q0-.67-.14-1.36a6.73,6.73,0,0,0-.27-1.26,2.45,2.45,0,0,0-.52-.93,1.16,1.16,0,0,0-.88-.36Z"/><path class="cls-1" d="M73.86,27.62V9.06h2.91A2.18,2.18,0,0,1,78,9.41a2.46,2.46,0,0,1,.82,1,5,5,0,0,1,.44,1.52,14.12,14.12,0,0,1,.12,1.95A10.34,10.34,0,0,1,79.18,16a5.12,5.12,0,0,1-.7,1.76,3.4,3.4,0,0,1,1,1.7,10.17,10.17,0,0,1,.31,2.67A12.5,12.5,0,0,1,79.6,24a7.34,7.34,0,0,1-.48,1.76,3.76,3.76,0,0,1-.89,1.31,2,2,0,0,1-1.38.52Zm4.2-13.77q0-.79,0-1.41a3.49,3.49,0,0,0-.22-1,1.63,1.63,0,0,0-.48-.67,1.74,1.74,0,0,0-.86-.32H75.13v7h1.39a1.16,1.16,0,0,0,.82-.22A2.27,2.27,0,0,0,77.88,16,10.28,10.28,0,0,0,78.06,13.85Zm-2.93,5v7.43h1.62A2.49,2.49,0,0,0,78,25a6.06,6.06,0,0,0,.45-2.57,10.16,10.16,0,0,0-.2-2.16A2.18,2.18,0,0,0,77.62,19a.72.72,0,0,0-.4-.15l-.55,0Z"/><path class="cls-1" d="M88.3,12.86,86.22,27.62H84.85L87.58,9.06H89l2.83,18.56H90.49Z"/><path class="cls-1" d="M97,27.62V9.06h3a1.31,1.31,0,0,1,.86.38,3.72,3.72,0,0,1,.8,1.06,6.77,6.77,0,0,1,.58,1.64,9.36,9.36,0,0,1,.22,2.12,9.52,9.52,0,0,1-.48,3.37,3.75,3.75,0,0,1-1.13,1.71,7.5,7.5,0,0,1,.6,1.42q.2.68.42,1.62v0L103,27.62h-1.42l-.8-3.9q-.22-1.16-.44-1.89a11.28,11.28,0,0,0-.4-1.17,2.66,2.66,0,0,0-.37-.67,3.18,3.18,0,0,0-.36-.37h-1v8Zm1.27-17.2v7.85h1.37a1,1,0,0,0,.73-.31,2.14,2.14,0,0,0,.45-.8,5.81,5.81,0,0,0,.24-1.1q.07-.6.12-1.17a2.17,2.17,0,0,0,0-.3,1.6,1.6,0,0,1,0-.27q0-.67-.14-1.36a6.73,6.73,0,0,0-.27-1.26,2.45,2.45,0,0,0-.52-.93,1.16,1.16,0,0,0-.88-.36Z"/><path class="cls-1" d="M111.45,12.86l-2.09,14.76H108l2.73-18.56h1.44L115,27.62h-1.37Z"/><path class="cls-1" d="M57.14,57.4V33.9H60.8a2.73,2.73,0,0,1,1.58.44,3.12,3.12,0,0,1,1,1.23A6.35,6.35,0,0,1,64,37.49,18,18,0,0,1,64.11,40a13.14,13.14,0,0,1-.28,2.73A6.48,6.48,0,0,1,63,44.93a4.3,4.3,0,0,1,1.2,2.16,12.93,12.93,0,0,1,.39,3.37,15.92,15.92,0,0,1-.19,2.39,9.33,9.33,0,0,1-.61,2.23,4.74,4.74,0,0,1-1.13,1.66,2.45,2.45,0,0,1-1.73.66ZM62.42,40q0-1-.06-1.78a4.41,4.41,0,0,0-.28-1.31,2.07,2.07,0,0,0-.61-.84,2.18,2.18,0,0,0-1.08-.41H58.74v8.81h1.75a1.45,1.45,0,0,0,1-.28,2.88,2.88,0,0,0,.67-1.5A13.06,13.06,0,0,0,62.42,40Zm-3.69,6.31v9.4h2a3.13,3.13,0,0,0,1.56-1.62,7.71,7.71,0,0,0,.56-3.25,13,13,0,0,0-.25-2.73,2.76,2.76,0,0,0-.78-1.58.9.9,0,0,0-.5-.19c-.21,0-.44,0-.69,0Z"/><path class="cls-1" d="M77.86,54.8a3.13,3.13,0,0,1-.52,1.73,1.84,1.84,0,0,1-1.51.86H73a1.92,1.92,0,0,1-1-.3,2.07,2.07,0,0,1-.64-.64,2.76,2.76,0,0,1-.34-.84,4.24,4.24,0,0,1-.11-1v-18a4.8,4.8,0,0,1,.11-1,2.37,2.37,0,0,1,.38-.87,2.08,2.08,0,0,1,.67-.61,2,2,0,0,1,1-.23h2.53a2.19,2.19,0,0,1,1.59.86,2.67,2.67,0,0,1,.59,1.67ZM72.55,54a2.85,2.85,0,0,0,.22,1.25q.22.44,1,.44h1.53a.76.76,0,0,0,.78-.42A3.27,3.27,0,0,0,76.29,54V37.31A3.27,3.27,0,0,0,76.11,36a.76.76,0,0,0-.78-.42H73.39c-.23,0-.43.15-.59.45a2.48,2.48,0,0,0-.25,1.2Z"/><path class="cls-1" d="M97.45,57.4V39.62l-5,17.78H91.07L86,39.59V57.4H84.35V33.9H86l5.78,19.78L97.41,33.9h1.66V57.4Z"/><path class="cls-1" d="M105.66,57.4V33.9h3.65a2.73,2.73,0,0,1,1.58.44,3.12,3.12,0,0,1,1,1.23,6.35,6.35,0,0,1,.55,1.92,18,18,0,0,1,.16,2.47,13.14,13.14,0,0,1-.28,2.73,6.48,6.48,0,0,1-.87,2.23,4.3,4.3,0,0,1,1.2,2.16,12.93,12.93,0,0,1,.39,3.37,15.92,15.92,0,0,1-.19,2.39,9.33,9.33,0,0,1-.61,2.23,4.74,4.74,0,0,1-1.13,1.66,2.45,2.45,0,0,1-1.73.66ZM110.94,40q0-1-.06-1.78a4.41,4.41,0,0,0-.28-1.31A2.07,2.07,0,0,0,110,36a2.18,2.18,0,0,0-1.08-.41h-1.66v8.81H109a1.45,1.45,0,0,0,1-.28,2.88,2.88,0,0,0,.67-1.5A13.06,13.06,0,0,0,110.94,40Zm-3.69,6.31v9.4h2a3.13,3.13,0,0,0,1.56-1.62,7.71,7.71,0,0,0,.56-3.25,13,13,0,0,0-.25-2.73,2.76,2.76,0,0,0-.78-1.58.9.9,0,0,0-.5-.19c-.21,0-.44,0-.69,0Z"/><path class="cls-1" d="M123.81,38.71,121.19,57.4h-1.72l3.44-23.49h1.81l3.56,23.49h-1.72Z"/><path class="cls-1" d="M136.25,54a2.54,2.54,0,0,0,.25,1.25,1.12,1.12,0,0,0,1.06.44H139a.76.76,0,0,0,.78-.42A3.27,3.27,0,0,0,140,54v-4.5h1.56V54.8a3.13,3.13,0,0,1-.52,1.73,1.84,1.84,0,0,1-1.51.86h-2.78a1.92,1.92,0,0,1-1-.3,2.07,2.07,0,0,1-.64-.64,2.76,2.76,0,0,1-.34-.84,4.24,4.24,0,0,1-.11-1v-18a3.36,3.36,0,0,1,.56-1.91,1.81,1.81,0,0,1,1.59-.84h2.53a2.19,2.19,0,0,1,1.59.86,2.67,2.67,0,0,1,.59,1.67v5.37H140V37.28a3.15,3.15,0,0,0-.19-1.25.77.77,0,0,0-.78-.41h-1.94c-.23,0-.43.15-.59.45a2.48,2.48,0,0,0-.25,1.2Z"/><path class="cls-1" d="M153.24,57.4V46.15h-3.72V57.4H148V33.9h1.56V44.4h3.72V33.9h1.56V57.4Z"/><path class="cls-1" d="M161.21,57.4V33.9h1.56V57.4Z"/><path class="cls-1" d="M170.71,41V57.4h-1.56V33.9h1.62l3.69,16.47V33.9H176V57.4h-1.59Z"/><path class="cls-1" d="M182.45,57.4V33.9H184V57.4Z"/></svg>