<svg xmlns="http://www.w3.org/2000/svg" width="250" height="250"><path opacity=".5" fill="#CCC" d="M236.333 228.297c0 9.595-50.118 17.374-111.942 17.374S12.45 237.892 12.45 228.297c0-9.597 58.791-17.374 111.942-17.374 63.269 0 111.941 7.776 111.941 17.374z"/><path fill="#028CB9" d="M18.048 186.303l29.291-38.109c14.488 13.543 34.33 20.787 54.487 20.787 22.992 0 34.33-11.339 34.33-24.252 0-14.173-11.023-24.252-32.755-24.252-16.693 0-29.921 4.725-41.574 15.748l-37.479-9.134V3h152.438v47.243H78.519v40.629c10.079-9.764 26.456-16.693 45.038-16.693 35.905 0 67.715 25.826 67.715 68.345 0 45.354-34.33 74.329-88.817 74.329-37.164 0-65.195-11.653-84.407-30.55z"/><g opacity=".05"><path d="M219.827 180.35c-1.866 0-3.876-.861-5.311-7.464-1.436-6.603-3.588-13.349-3.588-13.349 2.297 0 3.588-1.005 3.588-1.005-1.579-.718-5.024-3.158-7.32-6.172s-8.182-7.895-8.182-7.895v-9.76c0-6.603 4.235-11.77 4.235-11.77-2.87 0-4.235 2.583-4.235 2.583v-13.923c0-13.78 6.961-19.951 6.961-19.951-2.153-.143-3.588.861-3.588.861 1.005-10.191 4.127-13.206 4.127-13.206-11.483-3.014-17.889 3.732-17.889 3.732-1.292-6.172 3.759-9.762 3.759-9.762-5.885-1.292-10.752.431-10.752.431 0-9.043 3.595-12.059 3.595-12.059-17.942 0-28.13 13.491-28.13 13.491-.717-5.742.863-10.77.863-10.77C140.592 71.682 136 87.894 136 87.894c-1.148-2.727-1.291-8.918-1.291-8.918s-7.177 12.022-8.469 20.346c-1.292 8.326 1.148 32.225 1.148 32.225s-1.148-1.435-3.588-1.722c0 0 2.584 2.871 2.584 9.33 0 0-1.005-.861-2.728-.431 0 0 2.727 2.44 3.014 6.603 0 0-3.158 2.153-4.88 4.306 0 0-2.728.143-4.163.574 0 0 2.297 1.292 2.728 2.44 0 0-6.746 6.89-10.191 12.488 0 0 3.014-1.866 5.167-1.292 0 0-4.737 5.741-6.316 15.215 0 0 2.296-1.148 3.301-.574 0 0-2.871 6.028-3.014 12.344l-3.158 1.866 2.44 1.722s-1.866 7.751-2.297 12.201c0 0 1.435-1.435 2.584-1.866 0 0 1.579 3.732 3.732 6.603s7.034 5.311 9.904 5.311l5.396-.211c-.669 2.888-1.99 5.336-4.772 5.465l-.309.495a3.404 3.404 0 0 0-.172-.008c-.055.843-1.757.995-2.225 1.579-1.423 1.775-2.507 4.213-3.23 6.387-.529 1.593-.279 1.593-.646 3.23-.12.536-.676 1.108-.861 1.651 1.55-.521 5.845-.868 8.108-1.035l.038 2.003s.373.347.991.598c.021-.004.042-.01.068-.008.21.017.413.048.611.097 3.395-.304 5.759.269 9.694-.058.766-.091 1.484-.199 2.154-.58.191-.569.216-.604.306-1.34.019-.131.019-.266.051-.426.062-.011.122-.019.182-.028a.45.45 0 0 1 .14-.019c.017-.005.031-.013.05-.015l.187-.016a.198.198 0 0 1 .121-.011c.712-.064 1.856-.124 2.568-.162 2.315-.004 5.36.263 5.36.263.188-2.595.377-6.621 4.575-18.355l1.041-.645s12.895 4.544 24.861-.184c.947 2.331 4.011 10.164 4.492 15.102.412.579.366 1.313.38 2.091.012.659.067 1.317.085 1.974.43-.058 1.984-.249 3.945-.246.712.039 1.855.099 2.568.162a.198.198 0 0 1 .121.011l.187.016c.019.002.033.01.05.015.081.003.117.01.14.019l.182.028c.032.16.032.294.051.426.09.735.115.77.306 1.34.061.035.124.065.186.096 2.143-.272 4.314-.322 6.47-.219 1.696.08 3.362.399 5.031.702l.002.048c.168.018.333.03.497.041.896.16 1.794.309 2.697.407a70.28 70.28 0 0 0-.013-2.987c1.798.086 4.4.444 5.492.603.433.104.784.168 1.154.247.05.015.103.03.148.045a.07.07 0 0 1-.005-.013c.37.083.77.188 1.297.372-.08-.971-.073-.951-.201-2.168-.099-.942-.774-3.802-2.037-4.982 0 0 1.376.595 1.796.832-1.357-1.838-2.016-4.466-6.279-6.278 0 0 .778-.367 1.49-.46-.744-.458-1.312-.639-2.065-.584.256-.727 1.382-2.559 2.326-2.795 0 0-.58-.403-1.528-.091a9.249 9.249 0 0 0-1.027.617c-.126.089-.309-.003-.346-.141-.298-1.102-.492-2.222-.668-3.347 8.59-.311 9.794-4.718 9.794-4.718.718.574.717 1.866.717 1.866 3.732-4.88 3.302-9.761 3.302-9.761.861.143 1.579.718 1.579.718.431-7.464-1.866-20.239-1.866-20.239 1.148.574 1.866-.143 1.866-.143-1.292-.574-1.435-2.01-1.435-2.01 1.865.145 2.152-1.578 2.152-1.578z"/><path d="M137.709 234.506s.336-3.63-.847-6.25c0 0 2.242.152 2.619 6.073 0 0-1.57.183-1.772.177zm-11.254-12.242l.014-.111c.008.054.007.097-.014.111zm2.099 11.961a.447.447 0 0 1-.02-.005l.026-.068-.006.073z"/><path d="M157.098 75.132c-.717-5.742.863-10.77.863-10.77C140.593 71.682 136 87.894 136 87.894c-1.148-2.727-1.291-8.918-1.291-8.918s-7.177 12.022-8.469 20.346c-1.292 8.326 1.148 32.225 1.148 32.225s-1.148-1.435-3.588-1.722c0 0 2.584 2.871 2.584 9.33 0 0-1.005-.861-2.728-.431 0 0 2.727 2.44 3.014 6.603 0 0-3.158 2.153-4.88 4.306 0 0-2.728.143-4.163.574 0 0 2.297 1.292 2.728 2.44 0 0-6.746 6.89-10.191 12.488 0 0 3.014-1.866 5.167-1.292 0 0-4.737 5.741-6.316 15.215 0 0 2.296-1.148 3.301-.574 0 0-2.871 6.028-3.014 12.344l-3.158 1.866 2.44 1.722s-1.866 7.751-2.297 12.201c0 0 1.435-1.435 2.584-1.866 0 0 1.579 3.732 3.732 6.603s7.034 5.311 9.904 5.311l.363-.05c-.16.99-.34 1.976-.603 2.947-.037.137-.22.23-.346.141a8.953 8.953 0 0 0-1.027-.617c-.948-.312-1.528.091-1.528.091.945.236 2.07 2.068 2.326 2.795-.753-.055-1.321.126-2.065.584.712.092 1.49.46 1.49.46-4.262 1.812-4.922 4.44-6.279 6.278.42-.237 1.796-.832 1.796-.832-1.263 1.18-1.938 4.04-2.037 4.982-.128 1.217-.121 1.197-.201 2.168 1.13-.393 1.679-.431 2.594-.651 1.413-.206 5.363-.575 6.814-.424l-.229 2.963h.071c.745-.973 1.352-.358 2.016-.429.01-.769.05-1.624.113-2.39-.045-1.31.118-2.545.386-3.875l.029-.158c.527-1.815 1.444-2.859 2.039-3.494.198-.211.369-.466.516-.722a7.288 7.288 0 0 0 1.01-1.869c.59-1.61.337-5.149-.849-8.601 1.251 1.799 2.389 3.377 2.929 3.917l-.036-4.396s2.296 2.295 4.352 4.029c.99.864 2.21 1.897 3.077 2.344.063.04.119.161.188.161.009 0 .017-.033.026-.028 1.164.653 2.362 1.217 3.483 1.943.12.077.243.138.36.219.519.357 1.432.766 2.253 1.199l.776 9.173c.7-9.635 6.19-18.858 6.19-18.858l-.201-.06c-1.699-.525-14.129-4.825-21.473-20.18-.484-1.011 2.727 1.148 2.727 1.148-3.014-7.32-4.163-19.091-4.163-19.091 1.005.861 2.01 1.005 2.01 1.005-2.153-6.029-3.014-13.493-3.014-20.239-.574-36.315 12.847-44.64 12.847-44.64-2.296-.861-4.737-.789-4.737-.789 2.656-6.387 11.483-15.287 11.483-15.287-2.368.144-11.627 2.655-11.627 2.655 7.679-20.024 15.431-25.334 15.431-25.334-.574 4.808 1.292 9.904 1.292 9.904 16.651-20.598 30.028-19.637 30.028-19.637.992-2.066 2.119-3.475 2.119-3.475-17.939-.004-28.128 13.487-28.128 13.487zm47.065 159.261s-.162-5.204-1.346-7.823c0 0 3.086 1.902 3.069 7.912 0 0-1.521-.084-1.723-.089z"/><path d="M123.869 207.63c2.033-19.91 2.586-58.859 2.586-58.859-4.414 8.72-7.966 24.545-7.966 24.545l.861 3.445-1.938-.861c-3.114 10.809-1.007 25.278-.309 29.354 1.981 1.568 4.341 2.097 6.766 2.376zm-4.164-.43a314.826 314.826 0 0 0 2.013 9.421c.538.081 1.144.04 1.144.04.494-1.925.576-4.905.96-8.569-1.415-.166-2.804-.418-4.117-.892zm67.458 17.156a.21.21 0 0 1-.251-.097 8.902 8.902 0 0 0-.509.114c2.961-2.155 3.233-4.434 3.233-4.434-1.964.886-4.05 1.217-5.064 1.333 6.845-5.933 7.982-16.95 7.982-16.95-2.804 3.442-6.782 6.35-9.857 8.302l.007-.013s-2.06 1.152-3.964 2.049c-.084-.013-.167.01-.23.107-.978.453-1.89.823-2.427.912 0 0 1.585 2.927 2.247 4.506l-.13.105s2.294 5.421 3.128 10.672c.088.887.156 1.665.204 2.259.04.768.095 1.298.095 1.298 3.032-.449 7.316-.012 7.316-.012-.021.494.251 1.68.301 1.895a34.694 34.694 0 0 1 4.346-.291c-.019-5.091-.243-13.548-6.427-11.755z"/><path d="M123.71 209.166c-4.756-.804-9.071-6.27-9.071-6.27 3.467 3.687 7.784 4.181 7.784 4.181.57-4.211-2.91-13.848-2.91-13.848 2.577 3.21 3.987 6.923 4.758 9.961l-.561 5.976zm10.792-7.456s3.741 6.594 7.024 9.447c3.543 3.079 6.836 7.428 8.236 10.066 0 0 1.776-4.126 2.745-5.562 0 0-10.496-3.078-18.005-13.951zm48.829 12.861c.52-.732 1.116-1.412 1.684-2.107.931-1.14 1.995-2.246 2.776-3.487-1.349 1.01-2.851 1.884-4.387 2.808-4.457 3.02-7.563 3.876-7.563 3.876.969 1.436 2.745 5.562 2.745 5.562.847-1.596 2.39-3.82 4.26-6.009.157-.219.332-.428.485-.643zm-50.248-111.054c-.408.029-1.714.063-1.714.063-11.835.826-20.534-8.345-20.534-8.345s-.778 7.159 4.363 13.432c5.143 6.273 15.563 7.347 15.563 7.347.339 1.467-.395 4.738-.395 4.738s3.047-3.371 3.821-9.757c.544-4.476-.851-7.496-1.104-7.478"/><path d="M133.083 103.517c-.392.022-1.714.063-1.714.063-11.835.826-20.534-8.345-20.534-8.345s5.407 15.646 23.463 14.41c0 0 .499-2.894-1.215-6.128m59.088 0c.408.029 1.714.063 1.714.063 11.835.826 20.534-8.345 20.534-8.345s.778 7.159-4.363 13.432c-5.143 6.273-15.563 7.347-15.563 7.347-.339 1.467.395 4.738.395 4.738s-3.047-3.371-3.821-9.757c-.544-4.476.851-7.496 1.104-7.478"/><path d="M192.171 103.517c.392.022 1.714.063 1.714.063 11.835.826 20.534-8.345 20.534-8.345s-5.407 15.646-23.463 14.41c0 0-.499-2.894 1.215-6.128M127 156.522s-9 30.574 0 50.167v-50.167zm84.609 48.363c-4.199 3.204-8.567 3.407-8.567 3.407-.195-4.186 4.381-13.337 4.381-13.337a9.944 9.944 0 0 0-2.566 2.174l-.03-3.071 3.301-2.727-2.655-2.153 3.373-13.564-3.23 2.153s-1.004-19.305-.287-27.631c0 0-4.091-4.091-6.101-5.742 0 0 .38 5.944.813 15.442 1.833 7.619 4.681 23.385 1.139 37.252.041 2.811.071 5.665.088 8.547 0 0 1.765 6.133 2.339 10.439 0 0 .574.161 1.435.018l-.065-6.595c4.435-1.34 6.632-4.612 6.632-4.612z"/><ellipse cx="176.478" cy="145.684" rx="4.665" ry="5.904"/><ellipse cx="176.55" cy="144.107" rx="4.593" ry="5.813"/><path d="M175.33 141.109a1.776 1.776 0 0 0-.062.449c0 .819.534 1.482 1.192 1.482.585 0 1.069-.524 1.17-1.215.375.492.606 1.155.606 1.886 0 1.516-.988 2.745-2.207 2.745s-2.207-1.229-2.207-2.745c.001-1.211.632-2.237 1.508-2.602z"/><ellipse cx="154.086" cy="145.684" rx="4.665" ry="5.904"/><ellipse cx="154.158" cy="144.107" rx="4.593" ry="5.813"/><path d="M153.799 141.109a1.776 1.776 0 0 0-.062.449c0 .819.534 1.482 1.192 1.482.585 0 1.069-.524 1.17-1.215.375.492.606 1.155.606 1.886 0 1.516-.988 2.745-2.207 2.745s-2.207-1.229-2.207-2.745c.001-1.211.633-2.237 1.508-2.602z"/><path d="M192.258 138.594c-2.08-.304-5.711-.649-10.069-.426-5.672.292-10.531 1.079-13.434 1.549-.867.14-1.548.251-2.067.32l-.567.077c-.637.088-1.054.143-1.41.161-.356-.018-.773-.073-1.41-.161l-.567-.077c-.519-.069-1.2-.18-2.067-.32-2.903-.47-7.762-1.257-13.434-1.549-4.358-.222-7.989.122-10.069.426 0 0-2.22.283-4.119 1.086l.362 2.413s2.006-.478 3.966-.739c.364 3.403 1.073 7.776 1.073 7.776l.011.135c.054.22.104.434.158.668.404 1.72.804 2.73 2.417 3.336 1.584.598 5.331 1.151 9.11 1.346 1.405.073 3-.014 4.613-.249 2.392-.349 4.556-.993 5.383-1.605 1.203-.889 1.847-3.126 2.273-4.606l.127-.437c.151-.505.281-1.035.408-1.549.182-.738.369-1.501.529-1.764.029-.046.164-.205.69-.282.163-.024.346-.036.547-.039.201.003.384.015.547.039.526.077.661.236.69.282.16.263.348 1.026.529 1.764.127.514.257 1.044.408 1.549l.127.437c.426 1.48 1.069 3.717 2.272 4.606.827.611 2.99 1.255 5.383 1.605 1.613.235 3.208.321 4.613.249 3.779-.195 7.526-.748 9.11-1.346 1.612-.606 2.013-1.617 2.417-3.336.054-.233.104-.447.158-.668l.011-.135s.709-4.373 1.073-7.776c1.96.262 3.966.739 3.966.739l.362-2.413c-1.9-.804-4.12-1.086-4.12-1.086zm-31.289 5.24l-.005.04c-.095.782-.609 4.749-1.445 6.1-.81 1.305-1.097 1.631-3.615 2.057-.108.018-.221.035-.338.052-2.717.397-7.678.466-10.453-.066l-.193-.037c-2.832-.548-3.826-.782-4.119-1.663-.396-1.191-1.155-6.694-1.211-7.874-.043-.896.799-1.305 1.028-1.366.143-.038.373-.08.685-.126 1.988-.291 6.336-.576 8.387-.486 2.598.117 8.938 1.012 10.367 1.652 1.062.476 1.013.89.912 1.717zm27.653 6.482c-.293.881-1.287 1.115-4.119 1.663l-.193.037c-2.775.533-7.736.463-10.453.066-.117-.017-.23-.034-.338-.052-2.519-.426-2.805-.752-3.615-2.057-.836-1.351-1.351-5.318-1.445-6.1l-.005-.04c-.101-.827-.15-1.241.912-1.716 1.429-.641 7.769-1.535 10.367-1.652 2.051-.09 6.399.195 8.387.486.312.046.542.088.685.126.229.061 1.071.47 1.028 1.366-.056 1.18-.815 6.682-1.211 7.873zm-33.096-17.833s-5.189-2.475-8.159 2.12c0 0-.307-4.569 3.884-5.08 4.191-.511 4.275 2.96 4.275 2.96zm-1.946-6.714s-4.81-2.27-7.002 2.093c0 0-.716-3.812 2.717-4.732 3.433-.921 4.285 2.639 4.285 2.639zm20.533 9.515s4.03-1.922 6.336 1.647c0 0 .238-3.549-3.016-3.946-3.255-.396-3.32 2.299-3.32 2.299zm2.865-6.355s4.078-.66 4.776 3.067c0 0 1.354-2.691-1.01-4.115-2.364-1.426-3.766 1.048-3.766 1.048zm-21.813 39.753s2.847-1.913 4.528-2.177c0 0 .367 3.611 2.037 5.39 0 0 3.604-3.249 7.168-3.48 0 0 .92 1.98 2.414 2.714l-.008.023c.539.336 1.199.677 1.839.819 0 0 2.045-1.238 2.638-3.499 0 0 .197 4.773-2.799 7.374 0 0-2.285-1.115-3.931-2.9-.494-.482-1.008-1.041-1.258-1.497 0 0-5.286 3.739-5.479 5.872 0 0-3.815-3.72-5.117-6.586 0 0-2.546.804-3.253 1.322 0 0-2.047-3.347-2.462-6.368 0 0 2.461 2.351 3.683 2.993zm2.532-6.591s3.04-1.18 3.629-2.27c0 0 7.828.564 12.864-3.204.001 0-5.145 12.504-16.493 5.474z"/></g><path fill="#EAF7FE" d="M222.745 179.378c-1.866 0-3.876-.861-5.311-7.464-1.436-6.603-3.588-13.349-3.588-13.349 2.297 0 3.588-1.005 3.588-1.005-1.579-.718-5.024-3.158-7.32-6.172s-8.182-7.895-8.182-7.895v-9.76c0-6.603 4.235-11.77 4.235-11.77-2.87 0-4.235 2.583-4.235 2.583v-13.923c0-13.78 6.961-19.951 6.961-19.951-2.153-.143-3.588.861-3.588.861 1.005-10.191 4.127-13.206 4.127-13.206-11.483-3.014-17.889 3.732-17.889 3.732-1.292-6.172 3.759-9.762 3.759-9.762-5.885-1.292-10.752.431-10.752.431 0-9.043 3.595-12.059 3.595-12.059-17.942 0-28.13 13.491-28.13 13.491-.717-5.742.863-10.77.863-10.77-17.368 7.32-21.96 23.532-21.96 23.532-1.148-2.727-1.291-8.918-1.291-8.918s-7.177 12.022-8.469 20.346c-1.292 8.326 1.148 32.225 1.148 32.225s-1.148-1.435-3.588-1.722c0 0 2.584 2.871 2.584 9.33 0 0-1.005-.861-2.728-.431 0 0 2.727 2.44 3.014 6.603 0 0-3.158 2.153-4.88 4.306 0 0-2.728.143-4.163.574 0 0 2.297 1.292 2.728 2.44 0 0-6.746 6.89-10.191 12.488 0 0 3.014-1.866 5.167-1.292 0 0-4.737 5.741-6.316 15.215 0 0 2.296-1.148 3.301-.574 0 0-2.871 6.028-3.014 12.344l-3.158 1.866 2.44 1.722s-1.866 7.751-2.297 12.201c0 0 1.435-1.435 2.584-1.866 0 0 1.579 3.732 3.732 6.603s7.034 5.311 9.904 5.311l5.396-.211c-.669 2.888-1.99 5.336-4.772 5.465l-.309.495a3.404 3.404 0 0 0-.172-.008c-.055.843-1.757.995-2.225 1.579-1.423 1.775-2.507 4.213-3.23 6.387-.529 1.593-.279 1.593-.646 3.23-.12.536-.676 1.108-.861 1.651 1.55-.521 5.845-.868 8.108-1.035l.038 2.003s.373.347.991.598c.021-.004.042-.01.068-.008.21.017.413.048.611.097 3.395-.304 5.759.269 9.694-.058.766-.091 1.484-.199 2.154-.58.191-.569.216-.604.306-1.34.019-.131.019-.266.051-.426.062-.011.122-.019.182-.028a.45.45 0 0 1 .14-.019c.017-.005.031-.013.05-.015l.187-.016a.198.198 0 0 1 .121-.011c.712-.064 1.856-.124 2.568-.162 2.315-.004 5.36.263 5.36.263.188-2.595.377-6.621 4.575-18.355l1.041-.645s12.895 4.544 24.861-.184c.947 2.331 4.011 10.164 4.492 15.102.412.579.366 1.313.38 2.091.012.659.067 1.317.085 1.974.43-.058 1.984-.249 3.945-.246.712.039 1.855.099 2.568.162a.198.198 0 0 1 .121.011l.187.016c.019.002.033.01.05.015.081.003.117.01.14.019l.182.028c.032.16.032.294.051.426.09.736.115.77.306 1.34.061.035.124.065.186.096 2.143-.272 4.314-.322 6.47-.219 1.696.08 3.362.399 5.031.702l.002.048c.168.018.333.03.497.041.896.16 1.794.309 2.697.407a70.28 70.28 0 0 0-.013-2.987c1.798.086 4.4.444 5.492.603.433.104.784.168 1.153.247.05.015.103.03.148.045a.07.07 0 0 1-.005-.013c.371.083.77.188 1.297.372-.08-.971-.073-.951-.201-2.168-.099-.942-.774-3.802-2.037-4.982 0 0 1.376.595 1.796.832-1.357-1.838-2.016-4.466-6.279-6.278 0 0 .778-.367 1.49-.46-.744-.458-1.312-.639-2.065-.584.256-.727 1.382-2.559 2.326-2.795 0 0-.58-.403-1.528-.091a9.249 9.249 0 0 0-1.027.617c-.126.089-.309-.003-.346-.141-.298-1.102-.492-2.222-.668-3.347 8.59-.311 9.794-4.718 9.794-4.718.718.574.717 1.866.717 1.866 3.732-4.88 3.302-9.761 3.302-9.761.861.143 1.579.718 1.579.718.431-7.464-1.866-20.239-1.866-20.239 1.148.574 1.866-.143 1.866-.143-1.292-.574-1.435-2.01-1.435-2.01 1.866.144 2.153-1.578 2.153-1.578z"/><path fill="#CDEAF5" d="M140.627 233.534s.336-3.63-.847-6.25c0 0 2.242.152 2.619 6.073 0 0-1.57.182-1.772.177zm-11.254-12.243l.014-.111c.008.055.006.097-.014.111zm2.099 11.961a.447.447 0 0 1-.02-.005l.026-.068-.006.073z"/><path fill="#CDEAF5" d="M160.016 74.16c-.717-5.742.863-10.77.863-10.77-17.368 7.32-21.961 23.532-21.961 23.532-1.148-2.727-1.291-8.918-1.291-8.918s-7.177 12.022-8.469 20.346c-1.292 8.326 1.148 32.225 1.148 32.225s-1.148-1.435-3.588-1.722c0 0 2.584 2.871 2.584 9.33 0 0-1.005-.861-2.728-.431 0 0 2.727 2.44 3.014 6.603 0 0-3.158 2.153-4.88 4.306 0 0-2.728.143-4.163.574 0 0 2.297 1.292 2.728 2.44 0 0-6.746 6.89-10.191 12.488 0 0 3.014-1.866 5.167-1.292 0 0-4.737 5.741-6.316 15.215 0 0 2.296-1.148 3.301-.574 0 0-2.871 6.028-3.014 12.344l-3.158 1.866 2.44 1.722s-1.866 7.751-2.297 12.201c0 0 1.435-1.435 2.584-1.866 0 0 1.579 3.732 3.732 6.603s7.034 5.311 9.904 5.311l.363-.05c-.16.99-.34 1.976-.603 2.947-.037.137-.22.23-.346.141a8.953 8.953 0 0 0-1.027-.617c-.948-.312-1.528.091-1.528.091.945.236 2.07 2.068 2.326 2.795-.753-.055-1.321.126-2.065.584.712.092 1.49.46 1.49.46-4.262 1.812-4.922 4.44-6.279 6.278.42-.237 1.796-.832 1.796-.832-1.263 1.18-1.938 4.04-2.037 4.982-.128 1.217-.121 1.197-.201 2.168 1.13-.393 1.679-.431 2.594-.651 1.413-.206 5.363-.589 6.814-.438l-.229 2.949h.071c.745-1 1.352-.344 2.016-.416.01-.769.05-1.617.113-2.383-.045-1.31.118-2.542.386-3.871l.029-.156c.527-1.815 1.444-2.858 2.039-3.493.198-.211.369-.466.516-.722a7.288 7.288 0 0 0 1.01-1.869c.59-1.61.337-5.149-.849-8.601 1.251 1.799 2.389 3.377 2.929 3.917l-.036-4.396s2.296 2.295 4.352 4.029c.99.864 2.21 1.897 3.077 2.344.063.04.119.161.188.161.009 0 .017-.033.026-.028 1.164.653 2.362 1.217 3.483 1.943.12.077.243.138.36.219.519.357 1.432.766 2.253 1.199l.776 9.173c.7-9.635 6.19-18.858 6.19-18.858l-.201-.06c-1.699-.525-14.129-4.825-21.473-20.18-.484-1.011 2.727 1.148 2.727 1.148-3.014-7.32-4.163-19.091-4.163-19.091 1.005.861 2.01 1.005 2.01 1.005-2.153-6.029-3.014-13.493-3.014-20.239-.574-36.315 12.847-44.64 12.847-44.64-2.296-.861-4.737-.789-4.737-.789 2.656-6.387 11.483-15.287 11.483-15.287-2.368.144-11.627 2.655-11.627 2.655 7.679-20.024 15.431-25.334 15.431-25.334-.574 4.808 1.292 9.904 1.292 9.904 16.651-20.598 30.028-19.637 30.028-19.637.992-2.066 2.119-3.475 2.119-3.475-17.94-.003-28.128 13.488-28.128 13.488zm47.065 159.26s-.162-5.204-1.346-7.823c0 0 3.086 1.902 3.069 7.912 0 0-1.522-.083-1.723-.089z"/><path fill="#ACDBE3" d="M126.786 206.657c2.033-19.91 2.586-58.859 2.586-58.859-4.414 8.72-7.966 24.545-7.966 24.545l.861 3.445-1.938-.861c-3.114 10.809-1.007 25.278-.309 29.354 1.982 1.569 4.341 2.098 6.766 2.376zm-4.163-.43a314.826 314.826 0 0 0 2.013 9.421c.538.081 1.144.04 1.144.04.494-1.925.576-4.905.96-8.569-1.415-.166-2.804-.417-4.117-.892z"/><path fill="#CDEAF5" d="M190.081 223.384a.21.21 0 0 1-.251-.097 8.902 8.902 0 0 0-.509.114c2.961-2.155 3.233-4.434 3.233-4.434-1.964.886-4.05 1.217-5.064 1.333 6.845-5.933 7.982-16.95 7.982-16.95-2.804 3.442-6.782 6.35-9.857 8.302l.007-.013s-2.06 1.152-3.964 2.049c-.084-.013-.167.01-.23.107-.978.453-1.89.823-2.427.912 0 0 1.585 2.927 2.247 4.506l-.13.105s2.294 5.421 3.128 10.672c.088.887.156 1.665.204 2.259.04.768.095 1.298.095 1.298 3.032-.449 7.316-.012 7.316-.012-.021.494.251 1.68.301 1.895a34.694 34.694 0 0 1 4.346-.291c-.019-5.092-.243-13.548-6.427-11.755z"/><path fill="#85C1CE" d="M126.628 208.193c-4.756-.804-9.071-6.27-9.071-6.27 3.467 3.687 7.784 4.181 7.784 4.181.57-4.211-2.91-13.848-2.91-13.848 2.577 3.21 3.987 6.923 4.758 9.961l-.561 5.976z"/><path fill="#ACDBE3" d="M137.42 200.738s3.741 6.594 7.024 9.447c3.543 3.079 6.836 7.428 8.236 10.066 0 0 1.776-4.126 2.745-5.562 0-.001-10.496-3.078-18.005-13.951zm48.829 12.86c.52-.732 1.116-1.412 1.684-2.107.931-1.14 1.995-2.246 2.776-3.487-1.349 1.01-2.851 1.884-4.387 2.808-4.457 3.02-7.563 3.876-7.563 3.876.969 1.436 2.745 5.562 2.745 5.562.847-1.596 2.39-3.82 4.26-6.009.157-.218.331-.427.485-.643z"/><path fill="#5C5B5D" d="M136.001 102.545c-.408.029-1.714.063-1.714.063-11.835.826-20.534-8.345-20.534-8.345s-.778 7.159 4.363 13.432c5.143 6.273 15.563 7.347 15.563 7.347.339 1.467-.395 4.738-.395 4.738s3.047-3.371 3.821-9.757c.544-4.477-.852-7.497-1.104-7.478"/><path fill="#747F83" d="M136.001 102.545c-.392.022-1.714.063-1.714.063-11.835.826-20.534-8.345-20.534-8.345s5.407 15.646 23.463 14.41c-.001-.001.499-2.895-1.215-6.128"/><path fill="#5C5B5D" d="M195.088 102.545c.408.029 1.714.063 1.714.063 11.835.826 20.534-8.345 20.534-8.345s.778 7.159-4.363 13.432c-5.143 6.273-15.563 7.347-15.563 7.347-.339 1.467.395 4.738.395 4.738s-3.047-3.371-3.821-9.757c-.544-4.477.852-7.497 1.104-7.478"/><path fill="#747F83" d="M195.088 102.545c.392.022 1.714.063 1.714.063 11.835.826 20.534-8.345 20.534-8.345s-5.407 15.646-23.463 14.41c0-.001-.499-2.895 1.215-6.128"/><path fill="#CDEAF5" d="M130 155.55s-9 30.574 0 50.167V155.55zm84.527 48.362c-4.199 3.204-8.567 3.407-8.567 3.407-.195-4.186 4.381-13.337 4.381-13.337a9.944 9.944 0 0 0-2.566 2.174l-.03-3.071 3.301-2.727-2.655-2.153 3.373-13.564-3.23 2.153s-1.004-19.305-.287-27.631c0 0-4.091-4.091-6.101-5.742 0 0 .38 5.944.813 15.442 1.833 7.619 4.681 23.385 1.139 37.252.041 2.811.071 5.665.087 8.547 0 0 1.765 6.133 2.339 10.439 0 0 .574.161 1.435.018l-.065-6.595c4.436-1.34 6.633-4.612 6.633-4.612z"/><ellipse fill="#CDEAF5" cx="179.396" cy="144.711" rx="4.665" ry="5.904"/><ellipse fill="#FFF" cx="179.468" cy="143.134" rx="4.593" ry="5.813"/><path fill="#4F4E51" d="M178.248 140.137a1.776 1.776 0 0 0-.062.449c0 .819.534 1.482 1.192 1.482.585 0 1.069-.524 1.17-1.215.375.492.606 1.155.606 1.886 0 1.516-.988 2.745-2.207 2.745s-2.207-1.229-2.207-2.745c.001-1.212.632-2.238 1.508-2.602z"/><ellipse fill="#CDEAF5" cx="157.004" cy="144.711" rx="4.665" ry="5.904"/><ellipse fill="#FFF" cx="157.076" cy="143.134" rx="4.593" ry="5.813"/><path fill="#4F4E51" d="M156.717 140.137a1.776 1.776 0 0 0-.062.449c0 .819.534 1.482 1.192 1.482.585 0 1.069-.524 1.17-1.215.375.492.606 1.155.606 1.886 0 1.516-.988 2.745-2.207 2.745s-2.207-1.229-2.207-2.745c.001-1.212.632-2.238 1.508-2.602z"/><path fill="#5C5B5D" d="M195.176 137.621c-2.08-.304-5.711-.649-10.069-.426-5.672.292-10.531 1.079-13.434 1.549-.867.14-1.548.251-2.067.32l-.567.077c-.637.088-1.054.143-1.41.161-.356-.018-.773-.073-1.41-.161l-.567-.077c-.519-.069-1.2-.18-2.067-.32-2.903-.47-7.762-1.257-13.434-1.549-4.358-.222-7.989.122-10.069.426 0 0-2.22.283-4.119 1.086l.362 2.413s2.006-.478 3.966-.739c.364 3.403 1.073 7.776 1.073 7.776l.011.135c.054.22.104.434.158.668.404 1.72.804 2.73 2.417 3.336 1.584.598 5.331 1.151 9.11 1.346 1.405.073 3-.014 4.613-.249 2.392-.349 4.556-.993 5.383-1.605 1.203-.889 1.847-3.126 2.273-4.606l.127-.437c.151-.505.281-1.035.408-1.549.182-.738.369-1.501.529-1.764.029-.046.164-.205.69-.282.163-.024.346-.036.547-.039.201.003.384.015.547.039.526.077.661.236.69.282.16.263.348 1.026.529 1.764.127.514.257 1.044.408 1.549l.127.437c.426 1.48 1.069 3.717 2.272 4.606.827.611 2.99 1.255 5.383 1.605 1.613.235 3.208.321 4.613.249 3.779-.195 7.526-.748 9.11-1.346 1.612-.606 2.013-1.617 2.417-3.336.054-.233.104-.447.158-.668l.011-.135s.709-4.373 1.073-7.776c1.96.262 3.966.739 3.966.739l.362-2.413c-1.9-.803-4.12-1.086-4.12-1.086zm-31.289 5.24l-.005.04c-.095.782-.609 4.749-1.445 6.1-.81 1.305-1.097 1.631-3.615 2.057-.108.018-.221.035-.338.052-2.717.397-7.678.466-10.453-.066l-.193-.037c-2.832-.548-3.826-.782-4.119-1.663-.396-1.191-1.155-6.694-1.211-7.874-.043-.896.799-1.305 1.028-1.366.143-.038.373-.08.685-.126 1.988-.291 6.336-.576 8.387-.486 2.598.117 8.938 1.012 10.367 1.652 1.062.476 1.012.89.912 1.717zm27.653 6.483c-.293.881-1.287 1.115-4.119 1.663l-.193.037c-2.775.533-7.736.463-10.453.066-.117-.017-.23-.034-.338-.052-2.518-.426-2.805-.752-3.615-2.057-.836-1.351-1.351-5.318-1.445-6.1l-.005-.04c-.1-.827-.15-1.241.912-1.716 1.429-.64 7.769-1.535 10.367-1.652 2.051-.09 6.399.195 8.387.486.312.046.542.088.685.126.229.061 1.071.47 1.028 1.366-.056 1.179-.816 6.682-1.211 7.873z"/><path fill="#A1D4E9" d="M158.444 131.51s-5.189-2.475-8.159 2.12c0 0-.307-4.569 3.884-5.08 4.19-.511 4.275 2.96 4.275 2.96zm-1.947-6.714s-4.81-2.27-7.002 2.093c0 0-.716-3.812 2.717-4.732 3.433-.92 4.285 2.639 4.285 2.639zm20.534 9.516s4.03-1.922 6.336 1.647c0 0 .238-3.549-3.016-3.946-3.255-.397-3.32 2.299-3.32 2.299zm2.865-6.356s4.078-.66 4.776 3.067c0 0 1.354-2.691-1.01-4.115-2.365-1.426-3.766 1.048-3.766 1.048z"/><path fill="#B2DEEF" d="M158.083 167.709s2.847-1.913 4.528-2.177c0 0 .367 3.611 2.037 5.39 0 0 3.604-3.249 7.168-3.48 0 0 .92 1.98 2.414 2.714l-.008.023c.539.336 1.199.677 1.839.819 0 0 2.045-1.238 2.638-3.499 0 0 .197 4.773-2.799 7.374 0 0-2.285-1.115-3.931-2.9-.494-.482-1.008-1.041-1.258-1.497 0 0-5.286 3.739-5.479 5.872 0 0-3.815-3.72-5.117-6.586 0 0-2.546.804-3.253 1.322 0 0-2.047-3.347-2.462-6.368-.001.001 2.461 2.352 3.683 2.993z"/><path fill="#5C5B5D" d="M160.615 161.118s3.04-1.18 3.629-2.27c0 0 7.828.564 12.864-3.204 0 .001-5.145 12.504-16.493 5.474z"/></svg>