<svg id="Layer_1" xmlns="http://www.w3.org/2000/svg" viewBox="0 0 744 741"><style>.st3{fill:#ebebeb}.st5{fill:#fff}</style><path fill="#fff" stroke="#000" stroke-miterlimit="10" d="M1-1h743v743H1z"/><path fill="#e44f26" d="M50.4 546.7L23.3 243.1h297.5l-27.1 303.6-121.8 33.7z"/><path fill="#f1662a" d="M172 554.6l98.5-27.3 23.1-259.4H172z"/><path class="st3" d="M172 380.5h-49.2l-3.4-38.1H172v-37.3H78.7l.9 10 9.1 102.7H172zm0 96.7l-.1.1-41.5-11.2-2.6-29.7H90.4l5.2 58.4 76.3 21.2h.1z"/><path d="M51 160.6h18.9v18.7h17.3v-18.7h18.9v56.6H87.2v-19H69.9v19H51v-56.6zm80 18.7h-16.7v-18.8h52.3v18.8H150v37.8h-19v-37.8zm43.9-18.7h19.7l12.1 19.9 12.1-19.9h19.7v56.6h-18.8v-28.1l-13 20.1h-.3l-13-20.1v28.1h-18.5v-56.6zm73.2 0H267v37.9h26.6v18.7h-45.5v-56.6z" fill="#010101"/><path class="st5" d="M171.9 380.5v37.3h45.9l-4.4 48.2-41.5 11.3V516l76.3-21.2.6-6.2 8.8-98.1.9-10h-10.1zm0-75.4v37.3h90l.7-8.4 1.7-18.9.9-10z"/><path d="M660.2 176.7h-24.7l25.7 27.9v13.3h-52.9v-15.5H634l-25.7-27.9v-13.3h51.9v15.5zm-62.4 0h-24.7l25.7 27.9v13.3h-52.9v-15.5h25.7l-25.7-27.9v-13.3h51.9v15.5zm-61.8.6h-26.6v24.3H536v16.2h-45.6v-56.7H536v16.2z" fill="#131313"/><path fill="#1572b6" d="M454.1 547.3l-27-303.6h297.4l-27.1 303.5L575.6 581z"/><path fill="#33a9dc" d="M575.8 525.2l98.4-27.3 23.2-259.4H575.8z"/><path class="st5" d="M575.8 348.5h49.3l3.4-38.1h-52.7v-37.3h93.4l-.9 10-9.2 102.6h-83.3z"/><path class="st3" d="M576 445.2h-.1l-41.5-11.1-2.7-29.7h-37.3l5.2 58.4 76.2 21.2.2-.1z"/><path class="st5" d="M621.9 384.2l-4.5 49.8-41.5 11.2V484l76.3-21.2.6-6.3 6.5-72.3z"/><path class="st3" d="M575.9 273.1v37.3H486l-.8-8.4-1.7-18.9-.9-10zm-.1 75.4v37.2h-41l-.7-8.3-1.7-18.9-.9-10z"/></svg>